<svg width="16" height="16" viewBox="0 0 16 16" fill="none" xmlns="http://www.w3.org/2000/svg">
<path d="M15.854 12.854L11 8L15.854 3.146C15.947 3.05185 15.9992 2.92484 15.9992 2.7925C15.9992 2.66016 15.947 2.53315 15.854 2.439L13.561 0.146C13.5146 0.0994673 13.4595 0.0625456 13.3989 0.0373527C13.3382 0.0121597 13.2732 -0.000808716 13.2075 -0.000808716C13.1418 -0.000808716 13.0768 0.0121597 13.0161 0.0373527C12.9555 0.0625456 12.9004 0.0994673 12.854 0.146L8 5L3.146 0.146C3.05224 0.0522644 2.92508 -0.000393297 2.7925 -0.000393297C2.65992 -0.000393297 2.53276 0.0522644 2.439 0.146L0.146 2.439C0.0994673 2.48536 0.0625456 2.54045 0.0373527 2.60111C0.0121597 2.66178 -0.000808716 2.72681 -0.000808716 2.7925C-0.000808716 2.85819 0.0121597 2.92322 0.0373527 2.98389C0.0625456 3.04455 0.0994673 3.09964 0.146 3.146L5 8L0.146 12.854C0.0522644 12.9478 -0.000393297 13.0749 -0.000393297 13.2075C-0.000393297 13.3401 0.0522644 13.4672 0.146 13.561L2.439 15.854C2.48536 15.9005 2.54045 15.9375 2.60111 15.9626C2.66178 15.9878 2.72681 16.0008 2.7925 16.0008C2.85819 16.0008 2.92322 15.9878 2.98389 15.9626C3.04455 15.9375 3.09964 15.9005 3.146 15.854L8 11L12.854 15.854C12.9478 15.9477 13.0749 16.0004 13.2075 16.0004C13.3401 16.0004 13.4672 15.9477 13.561 15.854L15.854 13.561C15.9005 13.5146 15.9375 13.4595 15.9626 13.3989C15.9878 13.3382 16.0008 13.2732 16.0008 13.2075C16.0008 13.1418 15.9878 13.0768 15.9626 13.0161C15.9375 12.9555 15.9005 12.9004 15.854 12.854Z" fill="#db8876"/>
</svg>